<svg version="1.1" class="clearos-svg clearfoundation app-vendor-clearfoundation app-free app-category-system app-sub-category-account-manager" viewBox="0 0 400 400" preserveAspectRatio="xMinYMin" xmlns="http://www.w3.org/2000/svg" xmlns:xlink= "http://www.w3.org/1999/xlink">
<path fill="#AA0707" d="M91.666,184.647"/>
<path fill="#AA0707" d="M123.245,247.805"/>
<path fill="#AA0707" d="M91.666,184.647"/>
<path fill="#AA0707" d="M123.245,247.805"/>
<g>
	<path fill="#686868" d="M260.403,2.638c25.164,0,45.557,20.393,45.557,45.547s-20.393,45.54-45.557,45.54
		c-25.146,0-45.538-20.386-45.538-45.54C214.865,23.028,235.256,2.638,260.403,2.638z"/>
	<path fill="#686868" d="M257.878,106.532c-53.413,0-96.754,30.729-96.754,68.644c0,18.108,9.962,34.512,26.122,46.813V176.3
		c0-4.201,3.952-7.6,8.824-7.6c4.888,0,8.831,3.397,8.831,7.6v56.29c15.248,7.096,90.77,7.096,105.97,0v-56.547
		c0-4.068,3.805-7.343,8.544-7.343c4.708,0,8.544,3.305,8.544,7.343v46.366c16.479-12.302,26.689-28.92,26.689-47.217
		C354.664,137.245,311.353,106.532,257.878,106.532z"/>
	<path fill="#686868" d="M230.058,324.273c-75.286,39.567-143.274-18.351-143.274-18.351l-41.432,0.623
		c32.357,35.938,87.977,63.78,132.519,62.954c35.641-0.652,60.639-12.659,72.4-19.659l37.666,47.521l24.962-121.169H191.791
		L230.058,324.273z"/>
</g>
</svg>
